<?xml version="1.0" ?><svg contentScriptType="text/ecmascript" contentStyleType="text/css"
  enable-background="new 0 0 2048 2048" height="2048px" id="Layer_1" preserveAspectRatio="xMidYMid meet" version="1.1"
  viewBox="0.0 0 1792.0 2048" width="1792.0px" xml:space="preserve" xmlns="http://www.w3.org/2000/svg"
  xmlns:xlink="http://www.w3.org/1999/xlink" zoomAndPan="magnify">
  <path
    d="M512,1376v192c0,26.667-9.333,49.333-28,68s-41.333,28-68,28H96c-26.667,0-49.333-9.333-68-28s-28-41.333-28-68v-192  c0-26.667,9.333-49.333,28-68s41.333-28,68-28h320c26.667,0,49.333,9.333,68,28S512,1349.333,512,1376z M512,864v192  c0,26.667-9.333,49.333-28,68s-41.333,28-68,28H96c-26.667,0-49.333-9.333-68-28s-28-41.333-28-68V864c0-26.667,9.333-49.333,28-68  s41.333-28,68-28h320c26.667,0,49.333,9.333,68,28S512,837.333,512,864z M1792,1376v192c0,26.667-9.333,49.333-28,68  s-41.333,28-68,28H736c-26.667,0-49.333-9.333-68-28s-28-41.333-28-68v-192c0-26.667,9.333-49.333,28-68s41.333-28,68-28h960  c26.667,0,49.333,9.333,68,28S1792,1349.333,1792,1376z M512,352v192c0,26.667-9.333,49.333-28,68s-41.333,28-68,28H96  c-26.667,0-49.333-9.333-68-28S0,570.667,0,544V352c0-26.667,9.333-49.333,28-68s41.333-28,68-28h320c26.667,0,49.333,9.333,68,28  S512,325.333,512,352z M1792,864v192c0,26.667-9.333,49.333-28,68s-41.333,28-68,28H736c-26.667,0-49.333-9.333-68-28  s-28-41.333-28-68V864c0-26.667,9.333-49.333,28-68s41.333-28,68-28h960c26.667,0,49.333,9.333,68,28S1792,837.333,1792,864z   M1792,352v192c0,26.667-9.333,49.333-28,68s-41.333,28-68,28H736c-26.667,0-49.333-9.333-68-28s-28-41.333-28-68V352  c0-26.667,9.333-49.333,28-68s41.333-28,68-28h960c26.667,0,49.333,9.333,68,28S1792,325.333,1792,352z" />
</svg>